<!--?xml version="1.0" encoding="utf-8"?-->
<!-- Generator: Adobe Illustrator 18.0.0, SVG Export Plug-In . SVG Version: 6.00 Build 0)  -->

<svg version="1.1" id="_x32_" xmlns="http://www.w3.org/2000/svg" xmlns:xlink="http://www.w3.org/1999/xlink" x="0px" y="0px" viewBox="0 0 512 512" style="width: 256px; height: 256px; opacity: 1;" xml:space="preserve">
<style type="text/css">
	.st0{fill:#4B4B4B;}
</style>
<g>
	<path class="st0" d="M494.033,221.869c-19.535-3.252-119.276-15.022-136.735-16.276c-13.252-0.953-48.832-6.512-26.043-35.813
		c45.67-73.609,35.906-111.586,20.715-135.457c-12.726-19.996-50.998-26.043-59.781,21.514
		c-8.92,48.305-36.547,68.748-53.067,88.076C205.59,183.154,135.922,260.94,135.922,260.94v195.33c0,0,151.891,32.08,188.821,35.811
		c34.328,3.469,61.994-11.176,78.27-30.707c19.117-22.94,73.486-136.571,84.508-161.37
		C524.496,266.529,513.568,225.125,494.033,221.869z" style="fill: rgb(255, 228, 246);"></path>
	<rect x="0" y="250.252" class="st0" width="85.45" height="234.376" style="fill: rgb(255, 228, 246);"></rect>
</g>
</svg>
