<!--?xml version="1.0" encoding="utf-8"?-->
<!-- Generator: Adobe Illustrator 18.1.1, SVG Export Plug-In . SVG Version: 6.00 Build 0)  -->

<svg version="1.1" id="_x32_" xmlns="http://www.w3.org/2000/svg" xmlns:xlink="http://www.w3.org/1999/xlink" x="0px" y="0px" viewBox="0 0 512 512" style="width: 256px; height: 256px; opacity: 1;" xml:space="preserve">
<style type="text/css">
	.st0{fill:#4B4B4B;}
</style>
<g>
	<path class="st0" d="M337.578,0.001v53.934l82.329,0.008l-97.296,97.296c-35.826-27.331-78.85-41.114-121.686-41.089
		c-51.299-0.025-102.937,19.687-142.074,58.858C19.679,208.138-0.034,259.783,0,311.075c-0.034,51.299,19.679,102.92,58.85,142.075
		c39.138,39.171,90.775,58.884,142.074,58.85c51.3,0.034,102.938-19.686,142.076-58.85c39.154-39.129,58.883-90.776,58.849-142.075
		c0.034-42.837-13.767-85.859-41.097-121.686l97.295-97.295v82.329L512,174.405V0.001H337.578z M329.335,336.091
		c-4.815,24.763-16.689,48.226-35.928,67.473c-12.838,12.838-27.517,22.356-43.242,28.741c-23.564,9.561-49.509,11.968-74.256,7.17
		c-24.762-4.806-48.225-16.68-67.482-35.92c-12.82-12.838-22.348-27.517-28.733-43.242c-9.56-23.564-11.976-49.509-7.178-74.256
		c4.814-24.763,16.689-48.225,35.911-67.482c12.854-12.82,27.533-22.348,43.26-28.724c23.564-9.569,49.509-11.976,74.238-7.179
		c24.78,4.806,48.243,16.68,67.499,35.903c12.822,12.854,22.348,27.533,28.733,43.259
		C331.716,285.4,334.132,311.345,329.335,336.091z" style="fill: rgb(58, 171, 210);"></path>
</g>
</svg>
