<!--?xml version="1.0" encoding="utf-8"?-->
<!-- Generator: Adobe Illustrator 18.1.1, SVG Export Plug-In . SVG Version: 6.00 Build 0)  -->

<svg version="1.1" id="_x32_" xmlns="http://www.w3.org/2000/svg" xmlns:xlink="http://www.w3.org/1999/xlink" x="0px" y="0px" viewBox="0 0 512 512" style="width: 256px; height: 256px; opacity: 1;" xml:space="preserve">
<style type="text/css">
	.st0{fill:#4B4B4B;}
</style>
<g>
	<path class="st0" d="M375.846,289.327c30.62-30.577,49.655-73.137,49.641-119.843c0.014-46.706-19.021-89.266-49.641-119.843
		C345.262,19.022,302.702-0.014,255.996,0c-46.706-0.014-89.266,19.022-119.843,49.641c-30.619,30.577-49.655,73.137-49.64,119.843
		c-0.015,46.706,19.021,89.266,49.64,119.843c25.533,25.568,59.416,43.009,97.088,48.074v52.818h-78.55v45.502h78.55V512h45.509
		v-76.279h78.551v-45.502h-78.551v-52.818C316.423,332.336,350.306,314.895,375.846,289.327z M255.996,279.816
		c-15.317-0.007-29.75-3.085-42.944-8.656c-19.763-8.349-36.661-22.384-48.559-40.009c-11.912-17.64-18.822-38.713-18.836-61.667
		c0.014-15.317,3.092-29.758,8.663-42.937c8.349-19.762,22.384-36.668,40.01-48.565c17.639-11.905,38.712-18.822,61.666-18.83
		c15.317,0.007,29.75,3.085,42.93,8.656c19.762,8.35,36.676,22.385,48.572,40.01c11.898,17.64,18.808,38.712,18.822,61.667
		c0,15.317-3.077,29.751-8.648,42.938c-8.35,19.763-22.384,36.668-40.01,48.566C300.023,272.891,278.951,279.802,255.996,279.816z" style="fill: rgb(223, 86, 86);"></path>
</g>
</svg>
